<svg width="24.000000" height="24.000000" viewBox="0 0 24 24" fill="none" xmlns="http://www.w3.org/2000/svg" xmlns:xlink="http://www.w3.org/1999/xlink">
	<desc>
			Created with Pixso.
	</desc>
	<defs/>
	<path id="Vector" d="M12.67 11.8L23.07 1.4C23.43 1.04 23.43 0.44 23.07 0.08C22.7 -0.29 22.11 -0.29 21.74 0.08L11.34 10.48L0.94 0.08C0.57 -0.29 -0.02 -0.29 -0.38 0.08C-0.75 0.44 -0.75 1.04 -0.38 1.4L10.01 11.8L-0.38 22.2C-0.75 22.57 -0.75 23.16 -0.38 23.53C-0.2 23.71 0.04 23.8 0.28 23.8C0.52 23.8 0.76 23.71 0.94 23.53L11.34 13.13L21.74 23.53C21.92 23.71 22.16 23.8 22.4 23.8C22.64 23.8 22.88 23.71 23.07 23.53C23.43 23.16 23.43 22.57 23.07 22.2L12.67 11.8Z" fill="#135978" fill-opacity="0.500000" fill-rule="nonzero"/>
</svg>
