<svg width="191.000000" height="60.000000" viewBox="0 0 191 60" fill="none" xmlns="http://www.w3.org/2000/svg" xmlns:xlink="http://www.w3.org/1999/xlink">
	<desc>
			Created with Pixso.
	</desc>
	<defs/>
	<path d="M25.63 46.41C26.52 41.16 30.55 37.83 36.66 37.83L52.53 37.83C58.46 37.83 59.72 33.95 59.72 33.95C58.83 39.2 56.42 42.53 50.31 42.53L34.03 42.53C27.29 42.53 25.63 46.41 25.63 46.41Z" fill="#DF2325" fill-opacity="1.000000" fill-rule="nonzero"/>
	<path d="M52.26 43.53C50.91 45.55 49.35 45.73 46.39 45.73C43.43 45.73 39.95 45.8 35.13 45.73C29.95 45.66 25.95 47.99 25.62 53.07C26.97 51.05 28.72 50.68 31.68 50.68C34.64 50.68 36.43 50.62 41.24 50.68C46.42 50.76 50.47 48.48 52.26 43.53Z" fill="#EE4523" fill-opacity="1.000000" fill-rule="nonzero"/>
	<path d="M25.63 57.29C25.63 55.27 28.4 54.18 31.72 54.18C35.03 54.18 41.44 54.62 44.17 52.7C43.43 54.92 36.66 60 29.89 60C26.83 60 25.63 58.52 25.63 57.29Z" fill="#FE5F3E" fill-opacity="1.000000" fill-rule="nonzero"/>
	<path d="M13.6 25.59C18.86 26.47 22.2 30.49 22.2 36.59L22.2 52.44C22.2 58.35 26.09 59.61 26.09 59.61C20.83 58.73 17.49 56.32 17.49 50.22L17.49 33.97C17.49 27.23 13.6 25.59 13.6 25.59Z" fill="#172C4F" fill-opacity="1.000000" fill-rule="nonzero"/>
	<path d="M16.49 52.16C14.46 50.81 14.28 49.26 14.28 46.3C14.28 43.34 14.22 39.87 14.28 35.06C14.36 29.89 12.02 25.89 6.93 25.57C8.95 26.91 9.32 28.66 9.32 31.62C9.32 34.58 9.39 36.35 9.32 41.16C9.25 46.33 11.53 50.37 16.49 52.16Z" fill="#264A74" fill-opacity="1.000000" fill-rule="nonzero"/>
	<path d="M2.71 25.59C4.74 25.59 5.83 28.36 5.83 31.66C5.83 34.96 5.39 41.37 7.31 44.09C5.08 43.35 0 36.59 0 29.84C0 26.78 1.48 25.59 2.71 25.59Z" fill="#345A87" fill-opacity="1.000000" fill-rule="nonzero"/>
	<path d="M34.48 13.58C33.59 18.83 29.56 22.16 23.45 22.16L7.57 22.16C1.64 22.16 0.38 26.04 0.38 26.04C1.27 20.79 3.68 17.46 9.79 17.46L26.07 17.46C32.82 17.46 34.48 13.58 34.48 13.58Z" fill="#DF2325" fill-opacity="1.000000" fill-rule="nonzero"/>
	<path d="M7.85 16.46C9.19 14.44 10.75 14.26 13.72 14.26C16.68 14.26 20.16 14.2 24.97 14.26C30.16 14.33 34.16 12 34.49 6.92C33.14 8.94 31.39 9.31 28.42 9.31C25.46 9.31 23.68 9.37 18.87 9.31C13.69 9.23 9.64 11.51 7.85 16.46Z" fill="#EE4523" fill-opacity="1.000000" fill-rule="nonzero"/>
	<path d="M34.48 2.7C34.48 4.72 31.7 5.81 28.39 5.81C25.08 5.81 18.66 5.37 15.94 7.29C16.68 5.07 23.45 0 30.21 0C33.28 0 34.48 1.47 34.48 2.7Z" fill="#FE5F3E" fill-opacity="1.000000" fill-rule="nonzero"/>
	<path d="M46.5 34.4C41.24 33.52 37.91 29.5 37.91 23.4L37.91 7.55C37.91 1.64 34.02 0.38 34.02 0.38C39.28 1.26 42.61 3.67 42.61 9.77L42.61 26.02C42.61 32.76 46.5 34.4 46.5 34.4Z" fill="#172C4F" fill-opacity="1.000000" fill-rule="nonzero"/>
	<path d="M43.62 7.83C45.64 9.18 45.82 10.73 45.82 13.69C45.82 16.65 45.89 20.12 45.82 24.93C45.75 30.1 48.09 34.1 53.18 34.42C51.15 33.08 50.78 31.33 50.78 28.37C50.78 25.41 50.72 23.64 50.78 18.83C50.86 13.66 48.58 9.62 43.62 7.83Z" fill="#264A74" fill-opacity="1.000000" fill-rule="nonzero"/>
	<path d="M57.39 34.4C55.37 34.4 54.28 31.64 54.28 28.33C54.28 25.03 54.72 18.62 52.8 15.9C55.02 16.64 60.11 23.4 60.11 30.15C60.11 33.21 58.63 34.4 57.39 34.4Z" fill="#345A87" fill-opacity="1.000000" fill-rule="nonzero"/>
	<path d="M84.48 6.44L84.48 33.54L95.15 33.54L95.15 39.82L76.33 39.82L76.33 6.44L84.48 6.44Z" fill="#172C4F" fill-opacity="1.000000" fill-rule="nonzero"/>
	<path d="M119.54 12.95L107.2 12.95L107.2 19.7L118.11 19.7L118.11 25.98L107.2 25.98L107.2 33.3L119.54 33.3L119.54 39.82L99.06 39.82L99.06 6.44L119.54 6.44L119.54 12.95Z" fill="#172C4F" fill-opacity="1.000000" fill-rule="nonzero"/>
	<path d="M145.65 33.92L133.17 33.92L131.17 39.82L122.64 39.82L134.74 6.44L144.18 6.44L156.28 39.82L147.66 39.82L145.65 33.92ZM139.41 15.42L135.31 27.64L143.55 27.64L139.41 15.42Z" fill="#172C4F" fill-opacity="1.000000" fill-rule="nonzero"/>
	<path d="M190 23.13C190 33.02 183.14 39.82 172.47 39.82L159.94 39.82L159.94 6.44L172.47 6.44C183.14 6.44 190 13.19 190 23.13ZM171.94 32.77C178.09 32.77 181.71 29.25 181.71 23.12C181.71 16.99 178.09 13.37 171.94 13.37L168.08 13.37L168.08 32.77L171.94 32.77L171.94 32.77Z" fill="#172C4F" fill-opacity="1.000000" fill-rule="nonzero"/>
	<path d="M115.46 51.81L112.05 51.81L111.46 53.48L110.07 53.48L112.99 45.33L114.54 45.33L117.46 53.48L116.05 53.48L115.46 51.81ZM113.76 46.94L112.42 50.72L115.09 50.72L113.76 46.94Z" fill="#172C4F" fill-opacity="1.000000" fill-rule="nonzero"/>
	<path d="M128.93 48.99C128.93 51.49 127.21 53.03 124.6 53.03L121.94 53.03L121.94 44.89L124.6 44.89C127.21 44.88 128.93 46.47 128.93 48.99ZM124.6 51.94C126.53 51.94 127.56 50.83 127.56 48.99C127.56 47.12 126.53 45.98 124.6 45.98L123.28 45.98L123.28 51.94L124.6 51.94Z" fill="#172C4F" fill-opacity="1.000000" fill-rule="nonzero"/>
	<path d="M138.75 45.33L140.16 45.33L137.09 53.47L135.54 53.47L132.47 45.33L133.9 45.33L136.32 52.1L138.75 45.33Z" fill="#172C4F" fill-opacity="1.000000" fill-rule="nonzero"/>
	<path d="M144.53 45.33L145.87 45.33L145.87 53.47L144.53 53.47L144.53 45.33Z" fill="#172C4F" fill-opacity="1.000000" fill-rule="nonzero"/>
	<path d="M153.68 53.55C152.05 53.55 150.8 52.66 150.8 51.22L152.23 51.22C152.29 51.89 152.76 52.43 153.68 52.43C154.62 52.43 155.15 51.93 155.15 51.24C155.15 49.27 150.82 50.54 150.82 47.54C150.82 46.12 151.96 45.23 153.62 45.23C155.18 45.23 156.29 46.04 156.4 47.44L154.92 47.44C154.88 46.89 154.39 46.39 153.55 46.36C152.78 46.34 152.18 46.71 152.18 47.5C152.18 49.34 156.5 48.2 156.5 51.17C156.5 52.39 155.5 53.55 153.68 53.55Z" fill="#172C4F" fill-opacity="1.000000" fill-rule="nonzero"/>
	<path d="M165.04 53.55C162.74 53.55 160.87 51.83 160.87 49.38C160.87 46.94 162.74 45.22 165.04 45.22C167.36 45.22 169.21 46.94 169.21 49.38C169.21 51.83 167.37 53.55 165.04 53.55ZM165.04 52.4C166.66 52.4 167.83 51.22 167.83 49.39C167.83 47.55 166.66 46.4 165.04 46.4C163.42 46.4 162.25 47.55 162.25 49.39C162.25 51.22 163.43 52.4 165.04 52.4Z" fill="#172C4F" fill-opacity="1.000000" fill-rule="nonzero"/>
	<path d="M176.78 45.33C178.72 45.33 179.67 46.45 179.67 47.77C179.67 48.73 179.15 49.76 177.78 50.1L179.8 53.47L178.2 53.47L176.32 50.22L175.3 50.22L175.3 53.47L173.97 53.47L173.97 45.33L176.78 45.33ZM176.78 46.42L175.3 46.42L175.3 49.15L176.78 49.15C177.82 49.15 178.29 48.57 178.29 47.77C178.29 46.95 177.82 46.42 176.78 46.42Z" fill="#172C4F" fill-opacity="1.000000" fill-rule="nonzero"/>
	<path d="M187.18 53.55C185.55 53.55 184.3 52.66 184.3 51.22L185.73 51.22C185.79 51.89 186.26 52.43 187.18 52.43C188.12 52.43 188.65 51.93 188.65 51.24C188.65 49.27 184.32 50.54 184.32 47.54C184.32 46.12 185.46 45.23 187.12 45.23C188.68 45.23 189.79 46.04 189.9 47.44L188.42 47.44C188.38 46.89 187.89 46.39 187.05 46.36C186.28 46.34 185.68 46.71 185.68 47.5C185.68 49.34 190 48.2 190 51.17C190 52.39 189 53.55 187.18 53.55Z" fill="#172C4F" fill-opacity="1.000000" fill-rule="nonzero"/>
</svg>
